<mxfile host="app.diagrams.net" modified="2022-03-10T01:09:39.446Z" agent="5.0 (Macintosh; Intel Mac OS X 10_15_7) AppleWebKit/537.36 (KHTML, like Gecko) Chrome/98.0.4758.82 Safari/537.36 Edg/98.0.1108.51" etag="zo7o68cDiS4WHF4hB2la" version="15.7.4" type="github">
  <diagram id="C5RBs43oDa-KdzZeNtuy" name="日常费用报销">
    <mxGraphModel dx="1426" dy="826" grid="1" gridSize="10" guides="1" tooltips="1" connect="1" arrows="1" fold="1" page="1" pageScale="1" pageWidth="827" pageHeight="1169" math="0" shadow="0">
      <root>
        <mxCell id="WIyWlLk6GJQsqaUBKTNV-0" />
        <mxCell id="WIyWlLk6GJQsqaUBKTNV-1" parent="WIyWlLk6GJQsqaUBKTNV-0" />
        <mxCell id="WIyWlLk6GJQsqaUBKTNV-2" value="" style="rounded=0;html=1;jettySize=auto;orthogonalLoop=1;fontSize=11;endArrow=block;endFill=0;endSize=8;strokeWidth=1;shadow=0;labelBackgroundColor=none;edgeStyle=orthogonalEdgeStyle;" parent="WIyWlLk6GJQsqaUBKTNV-1" source="WIyWlLk6GJQsqaUBKTNV-3" target="WIyWlLk6GJQsqaUBKTNV-6" edge="1">
          <mxGeometry relative="1" as="geometry" />
        </mxCell>
        <mxCell id="WIyWlLk6GJQsqaUBKTNV-3" value="新增日常报销" style="rounded=1;whiteSpace=wrap;html=1;fontSize=12;glass=0;strokeWidth=1;shadow=0;" parent="WIyWlLk6GJQsqaUBKTNV-1" vertex="1">
          <mxGeometry x="274" y="140" width="120" height="40" as="geometry" />
        </mxCell>
        <mxCell id="WIyWlLk6GJQsqaUBKTNV-4" value="No" style="rounded=0;html=1;jettySize=auto;orthogonalLoop=1;fontSize=11;endArrow=block;endFill=0;endSize=8;strokeWidth=1;shadow=0;labelBackgroundColor=none;edgeStyle=orthogonalEdgeStyle;" parent="WIyWlLk6GJQsqaUBKTNV-1" source="WIyWlLk6GJQsqaUBKTNV-6" edge="1">
          <mxGeometry y="20" relative="1" as="geometry">
            <mxPoint as="offset" />
            <mxPoint x="334" y="340" as="targetPoint" />
          </mxGeometry>
        </mxCell>
        <mxCell id="WIyWlLk6GJQsqaUBKTNV-5" value="Yes" style="edgeStyle=orthogonalEdgeStyle;rounded=0;html=1;jettySize=auto;orthogonalLoop=1;fontSize=11;endArrow=block;endFill=0;endSize=8;strokeWidth=1;shadow=0;labelBackgroundColor=none;" parent="WIyWlLk6GJQsqaUBKTNV-1" source="WIyWlLk6GJQsqaUBKTNV-6" target="WIyWlLk6GJQsqaUBKTNV-7" edge="1">
          <mxGeometry y="10" relative="1" as="geometry">
            <mxPoint as="offset" />
          </mxGeometry>
        </mxCell>
        <mxCell id="WIyWlLk6GJQsqaUBKTNV-6" value="使用自定义模板" style="rhombus;whiteSpace=wrap;html=1;shadow=0;fontFamily=Helvetica;fontSize=12;align=center;strokeWidth=1;spacing=6;spacingTop=-4;" parent="WIyWlLk6GJQsqaUBKTNV-1" vertex="1">
          <mxGeometry x="284" y="220" width="100" height="80" as="geometry" />
        </mxCell>
        <mxCell id="mBr0ELvfSWXlssItVloV-8" value="" style="edgeStyle=orthogonalEdgeStyle;rounded=0;orthogonalLoop=1;jettySize=auto;html=1;entryX=1;entryY=0.5;entryDx=0;entryDy=0;" edge="1" parent="WIyWlLk6GJQsqaUBKTNV-1" source="WIyWlLk6GJQsqaUBKTNV-7" target="mBr0ELvfSWXlssItVloV-11">
          <mxGeometry relative="1" as="geometry">
            <mxPoint x="540" y="330" as="targetPoint" />
            <Array as="points">
              <mxPoint x="560" y="730" />
            </Array>
          </mxGeometry>
        </mxCell>
        <mxCell id="WIyWlLk6GJQsqaUBKTNV-7" value="选择自定义模板" style="rounded=1;whiteSpace=wrap;html=1;fontSize=12;glass=0;strokeWidth=1;shadow=0;arcSize=0;" parent="WIyWlLk6GJQsqaUBKTNV-1" vertex="1">
          <mxGeometry x="480" y="240" width="120" height="40" as="geometry" />
        </mxCell>
        <mxCell id="mBr0ELvfSWXlssItVloV-10" value="" style="edgeStyle=orthogonalEdgeStyle;rounded=0;orthogonalLoop=1;jettySize=auto;html=1;" edge="1" parent="WIyWlLk6GJQsqaUBKTNV-1" source="mBr0ELvfSWXlssItVloV-6" target="mBr0ELvfSWXlssItVloV-9">
          <mxGeometry relative="1" as="geometry" />
        </mxCell>
        <mxCell id="mBr0ELvfSWXlssItVloV-50" value="" style="edgeStyle=orthogonalEdgeStyle;rounded=0;orthogonalLoop=1;jettySize=auto;html=1;" edge="1" parent="WIyWlLk6GJQsqaUBKTNV-1" source="mBr0ELvfSWXlssItVloV-6" target="mBr0ELvfSWXlssItVloV-49">
          <mxGeometry relative="1" as="geometry" />
        </mxCell>
        <mxCell id="mBr0ELvfSWXlssItVloV-6" value="选择部门&amp;amp;预算名称" style="rounded=1;whiteSpace=wrap;html=1;fontSize=12;glass=0;strokeWidth=1;shadow=0;arcSize=0;" vertex="1" parent="WIyWlLk6GJQsqaUBKTNV-1">
          <mxGeometry x="274" y="340" width="120" height="40" as="geometry" />
        </mxCell>
        <mxCell id="mBr0ELvfSWXlssItVloV-20" value="" style="edgeStyle=orthogonalEdgeStyle;rounded=0;orthogonalLoop=1;jettySize=auto;html=1;" edge="1" parent="WIyWlLk6GJQsqaUBKTNV-1" source="mBr0ELvfSWXlssItVloV-9" target="mBr0ELvfSWXlssItVloV-19">
          <mxGeometry relative="1" as="geometry" />
        </mxCell>
        <mxCell id="mBr0ELvfSWXlssItVloV-9" value="选择支付方式" style="rounded=1;whiteSpace=wrap;html=1;fontSize=12;glass=0;strokeWidth=1;shadow=0;arcSize=3;" vertex="1" parent="WIyWlLk6GJQsqaUBKTNV-1">
          <mxGeometry x="274" y="400" width="120" height="40" as="geometry" />
        </mxCell>
        <mxCell id="mBr0ELvfSWXlssItVloV-34" value="" style="edgeStyle=orthogonalEdgeStyle;rounded=0;orthogonalLoop=1;jettySize=auto;html=1;" edge="1" parent="WIyWlLk6GJQsqaUBKTNV-1" source="mBr0ELvfSWXlssItVloV-11" target="mBr0ELvfSWXlssItVloV-33">
          <mxGeometry relative="1" as="geometry" />
        </mxCell>
        <mxCell id="mBr0ELvfSWXlssItVloV-11" value="上传发票&amp;amp;金额&amp;amp;事由" style="rounded=1;whiteSpace=wrap;html=1;fontSize=12;glass=0;strokeWidth=1;shadow=0;arcSize=0;" vertex="1" parent="WIyWlLk6GJQsqaUBKTNV-1">
          <mxGeometry x="274" y="710" width="120" height="40" as="geometry" />
        </mxCell>
        <mxCell id="mBr0ELvfSWXlssItVloV-26" value="No" style="edgeStyle=orthogonalEdgeStyle;rounded=0;orthogonalLoop=1;jettySize=auto;html=1;" edge="1" parent="WIyWlLk6GJQsqaUBKTNV-1" source="mBr0ELvfSWXlssItVloV-19" target="mBr0ELvfSWXlssItVloV-25">
          <mxGeometry relative="1" as="geometry" />
        </mxCell>
        <mxCell id="mBr0ELvfSWXlssItVloV-52" value="" style="edgeStyle=orthogonalEdgeStyle;rounded=0;orthogonalLoop=1;jettySize=auto;html=1;" edge="1" parent="WIyWlLk6GJQsqaUBKTNV-1" source="mBr0ELvfSWXlssItVloV-19" target="mBr0ELvfSWXlssItVloV-51">
          <mxGeometry relative="1" as="geometry" />
        </mxCell>
        <mxCell id="mBr0ELvfSWXlssItVloV-54" value="" style="edgeStyle=orthogonalEdgeStyle;rounded=0;orthogonalLoop=1;jettySize=auto;html=1;" edge="1" parent="WIyWlLk6GJQsqaUBKTNV-1" source="mBr0ELvfSWXlssItVloV-19" target="mBr0ELvfSWXlssItVloV-53">
          <mxGeometry relative="1" as="geometry" />
        </mxCell>
        <mxCell id="mBr0ELvfSWXlssItVloV-55" value="Yes" style="edgeLabel;html=1;align=center;verticalAlign=middle;resizable=0;points=[];" vertex="1" connectable="0" parent="mBr0ELvfSWXlssItVloV-54">
          <mxGeometry x="0.2" y="1" relative="1" as="geometry">
            <mxPoint as="offset" />
          </mxGeometry>
        </mxCell>
        <mxCell id="mBr0ELvfSWXlssItVloV-19" value="选择收款人" style="rhombus;whiteSpace=wrap;html=1;rounded=1;shadow=0;strokeWidth=1;glass=0;arcSize=0;" vertex="1" parent="WIyWlLk6GJQsqaUBKTNV-1">
          <mxGeometry x="281" y="490" width="106" height="80" as="geometry" />
        </mxCell>
        <mxCell id="mBr0ELvfSWXlssItVloV-29" style="edgeStyle=orthogonalEdgeStyle;rounded=0;orthogonalLoop=1;jettySize=auto;html=1;exitX=0.5;exitY=1;exitDx=0;exitDy=0;entryX=0;entryY=0.5;entryDx=0;entryDy=0;" edge="1" parent="WIyWlLk6GJQsqaUBKTNV-1" source="mBr0ELvfSWXlssItVloV-25" target="mBr0ELvfSWXlssItVloV-11">
          <mxGeometry relative="1" as="geometry" />
        </mxCell>
        <mxCell id="mBr0ELvfSWXlssItVloV-25" value="填写收款人信息" style="whiteSpace=wrap;html=1;rounded=1;shadow=0;strokeWidth=1;glass=0;arcSize=0;" vertex="1" parent="WIyWlLk6GJQsqaUBKTNV-1">
          <mxGeometry x="140" y="510" width="88" height="40" as="geometry" />
        </mxCell>
        <mxCell id="mBr0ELvfSWXlssItVloV-30" value="提交审批" style="rounded=1;whiteSpace=wrap;html=1;fontSize=12;glass=0;strokeWidth=1;shadow=0;arcSize=18;" vertex="1" parent="WIyWlLk6GJQsqaUBKTNV-1">
          <mxGeometry x="200" y="850" width="74" height="37.5" as="geometry" />
        </mxCell>
        <mxCell id="mBr0ELvfSWXlssItVloV-36" value="" style="edgeStyle=orthogonalEdgeStyle;rounded=0;orthogonalLoop=1;jettySize=auto;html=1;" edge="1" parent="WIyWlLk6GJQsqaUBKTNV-1" source="mBr0ELvfSWXlssItVloV-33" target="mBr0ELvfSWXlssItVloV-35">
          <mxGeometry relative="1" as="geometry" />
        </mxCell>
        <mxCell id="mBr0ELvfSWXlssItVloV-39" value="" style="edgeStyle=orthogonalEdgeStyle;rounded=0;orthogonalLoop=1;jettySize=auto;html=1;" edge="1" parent="WIyWlLk6GJQsqaUBKTNV-1" source="mBr0ELvfSWXlssItVloV-33" target="mBr0ELvfSWXlssItVloV-38">
          <mxGeometry relative="1" as="geometry" />
        </mxCell>
        <mxCell id="mBr0ELvfSWXlssItVloV-41" style="edgeStyle=orthogonalEdgeStyle;rounded=0;orthogonalLoop=1;jettySize=auto;html=1;exitX=0;exitY=0.5;exitDx=0;exitDy=0;entryX=0.5;entryY=0;entryDx=0;entryDy=0;" edge="1" parent="WIyWlLk6GJQsqaUBKTNV-1" source="mBr0ELvfSWXlssItVloV-33" target="mBr0ELvfSWXlssItVloV-30">
          <mxGeometry relative="1" as="geometry" />
        </mxCell>
        <mxCell id="mBr0ELvfSWXlssItVloV-33" value="" style="ellipse;whiteSpace=wrap;html=1;rounded=1;shadow=0;strokeWidth=1;glass=0;arcSize=0;" vertex="1" parent="WIyWlLk6GJQsqaUBKTNV-1">
          <mxGeometry x="317.95" y="790" width="32.1" height="30" as="geometry" />
        </mxCell>
        <mxCell id="mBr0ELvfSWXlssItVloV-35" value="保存为模板" style="whiteSpace=wrap;html=1;rounded=1;shadow=0;strokeWidth=1;glass=0;arcSize=17;" vertex="1" parent="WIyWlLk6GJQsqaUBKTNV-1">
          <mxGeometry x="394" y="850" width="93" height="37.5" as="geometry" />
        </mxCell>
        <mxCell id="mBr0ELvfSWXlssItVloV-38" value="保存为草稿" style="whiteSpace=wrap;html=1;rounded=1;shadow=0;strokeWidth=1;glass=0;arcSize=18;" vertex="1" parent="WIyWlLk6GJQsqaUBKTNV-1">
          <mxGeometry x="289.5" y="850" width="89" height="37.5" as="geometry" />
        </mxCell>
        <mxCell id="mBr0ELvfSWXlssItVloV-49" value="预算名称维护" style="shape=process;whiteSpace=wrap;html=1;backgroundOutline=1;rounded=1;shadow=0;strokeWidth=1;glass=0;arcSize=0;" vertex="1" parent="WIyWlLk6GJQsqaUBKTNV-1">
          <mxGeometry x="130" y="340" width="120" height="40" as="geometry" />
        </mxCell>
        <mxCell id="mBr0ELvfSWXlssItVloV-51" value="收款人维护" style="shape=process;whiteSpace=wrap;html=1;backgroundOutline=1;rounded=1;shadow=0;strokeWidth=1;glass=0;arcSize=0;" vertex="1" parent="WIyWlLk6GJQsqaUBKTNV-1">
          <mxGeometry x="410" y="510" width="120" height="40" as="geometry" />
        </mxCell>
        <mxCell id="mBr0ELvfSWXlssItVloV-56" value="No" style="edgeStyle=orthogonalEdgeStyle;rounded=0;orthogonalLoop=1;jettySize=auto;html=1;exitX=0.5;exitY=1;exitDx=0;exitDy=0;entryX=0.5;entryY=0;entryDx=0;entryDy=0;" edge="1" parent="WIyWlLk6GJQsqaUBKTNV-1" source="mBr0ELvfSWXlssItVloV-53" target="mBr0ELvfSWXlssItVloV-11">
          <mxGeometry relative="1" as="geometry" />
        </mxCell>
        <mxCell id="mBr0ELvfSWXlssItVloV-59" style="edgeStyle=orthogonalEdgeStyle;rounded=0;orthogonalLoop=1;jettySize=auto;html=1;exitX=1;exitY=0.5;exitDx=0;exitDy=0;" edge="1" parent="WIyWlLk6GJQsqaUBKTNV-1" source="mBr0ELvfSWXlssItVloV-53">
          <mxGeometry relative="1" as="geometry">
            <mxPoint x="334" y="460" as="targetPoint" />
            <Array as="points">
              <mxPoint x="540" y="640" />
              <mxPoint x="540" y="460" />
            </Array>
          </mxGeometry>
        </mxCell>
        <mxCell id="mBr0ELvfSWXlssItVloV-60" value="Yes" style="edgeLabel;html=1;align=center;verticalAlign=middle;resizable=0;points=[];" vertex="1" connectable="0" parent="mBr0ELvfSWXlssItVloV-59">
          <mxGeometry x="-0.6538" y="-1" relative="1" as="geometry">
            <mxPoint as="offset" />
          </mxGeometry>
        </mxCell>
        <mxCell id="mBr0ELvfSWXlssItVloV-53" value="是否多个收款人" style="rhombus;whiteSpace=wrap;html=1;rounded=1;shadow=0;strokeWidth=1;glass=0;arcSize=0;" vertex="1" parent="WIyWlLk6GJQsqaUBKTNV-1">
          <mxGeometry x="281" y="600" width="106" height="80" as="geometry" />
        </mxCell>
      </root>
    </mxGraphModel>
  </diagram>
</mxfile>
